<svg xmlns="http://www.w3.org/2000/svg" viewBox="0 0 316 316"><g fill="none" stroke-width="2"><path stroke="#6bbadb" stroke-opacity=".541" d="m51.75 9.54 25.96 15.79" vector-effect="non-scaling-stroke"/><path stroke="#6ac0e8" d="M77.71 25.33q2.44 2.89 5.81 4.71.48.26.62.78c3.83 14.23-9.92 30.86-24.09 31.83q-4.2.28-8.4-.4-.44-.07-.88.06-1.93.6-3.51-.38-.3-.18-.25.17.04.28-.04.5-.29.78-.4-.04-.09-.65-.53-1.06" vector-effect="non-scaling-stroke"/><path stroke="#6bbadb" stroke-opacity=".541" d="m46.04 61.5-.12-6.87M45.96 30l.25-19.5" vector-effect="non-scaling-stroke"/><path stroke="#57afde" d="m87.79 31.5.3.88q.16.49.63.68 1.61.67 2.71 1.94c3.73 4.31-2.86 16.72-5.64 20.35Q71.4 74.19 47.47 69.82q-.54-.1-.62.44-.09.63-.21 1.2-.08.38-.06-.01.16-2.06-.54-3.95" vector-effect="non-scaling-stroke"/><path stroke="#59aad3" stroke-opacity=".541" d="M46.04 67.5v-6" vector-effect="non-scaling-stroke"/><path stroke="#293d64" stroke-opacity=".541" d="M179 85.21c-2.14.3-8.86-4.5-11.21-5.71" vector-effect="non-scaling-stroke"/><path stroke="#234977" stroke-opacity=".541" d="m167.79 79.5-7.5-4.5" vector-effect="non-scaling-stroke"/><path stroke="#1e5489" stroke-opacity=".541" d="m160.29 75-12.5-7.5" vector-effect="non-scaling-stroke"/><path stroke="#185c97" stroke-opacity=".541" d="m147.79 67.5-7.04-4.46" vector-effect="non-scaling-stroke"/><path stroke="#136aad" stroke-opacity=".541" d="m140.75 63.04-8.01-4.58" vector-effect="non-scaling-stroke"/><path stroke="#2178b6" stroke-opacity=".541" d="M132.74 58.46 120.54 51" vector-effect="non-scaling-stroke"/><path stroke="#2c82bc" stroke-opacity=".541" d="m120.54 51-15-9" vector-effect="non-scaling-stroke"/><path stroke="#489aca" stroke-opacity=".541" d="M105.54 42 87.79 31.5" vector-effect="non-scaling-stroke"/><path stroke="#59aad3" stroke-opacity=".541" d="m87.79 31.5-10.08-6.17" vector-effect="non-scaling-stroke"/><path stroke="#3e99d2" d="M105.54 42c.44 1.96 2.03 2.12 2.85 3.41 2.78 4.41-5.49 17.73-8.5 21.73-5.46 7.25-12.95 12.85-21.09 16.64q-15.12 7.03-32.29 4.8" vector-effect="non-scaling-stroke"/><path stroke="#55819b" d="M46.51 88.58q.26-1.92-.51-3.37" vector-effect="non-scaling-stroke"/><path stroke="#489aca" stroke-opacity=".541" d="m46 83.71.04-16.21" vector-effect="non-scaling-stroke"/><path stroke="#2987c7" d="M120.54 51q1.14 2.58 3.96 3.25.52.13.45.65c-.22 1.79.24 3.12-.41 4.83-5.31 13.8-16.09 26.75-28.38 34.81q-.44.29-.96.21-.43-.07-.45.27-.04.45-.42.69c-13.85 8.89-30.05 12.41-46.21 11.72q-1.55-.06-1.39-1.6.2-1.99-.69-3.33" vector-effect="non-scaling-stroke"/><path stroke="#2c82bc" stroke-opacity=".541" d="M46.04 102.5q-.04-.12-.08-.25" vector-effect="non-scaling-stroke"/><path stroke="#467493" d="m46.21 94.5.3-5.92" vector-effect="non-scaling-stroke"/><path stroke="#23548a" d="M160.29 75q-2.01.6-1.87 2.73.1 1.6-.36.21-.03-.1-.04-.2-.07-.45-.22-.08c-8.33 20.26-24.94 37.84-43.24 49.24q-.61.38-4.38 2.98c-3.07 2.11-7.46 3.74-9.7 4.84-16.73 8.2-32.28 10.09-51.75 10.9-.37.02-1.41.65-1.79.86q-.17.09-.18-.1l-.47-7.63" vector-effect="non-scaling-stroke"/><path stroke="#1e5489" stroke-opacity=".541" d="m46.29 138.75-.25-4.25" vector-effect="non-scaling-stroke"/><path stroke="#1d5f9b" d="M147.79 67.5q.36 1.41 1.86 1.79 1.16.29.31.67-.79.36-.46.92.28.48.07 1c-9.83 24.03-29.6 43.09-52.81 54.21q-.45.21-.94.15-.74-.1-1.12.39-.3.38-.75.56-19.81 8.03-41.22 8.3c-1.75.03-3.39.35-5.06.68q-.17.03-.17-.14v-.34q.01-.33-.22-.1l-.24.25q-.18.18-.22-.07-.14-.77-.78-1.27" vector-effect="non-scaling-stroke"/><path stroke="#185c97" stroke-opacity=".541" d="M46.04 134.5v-26.75" vector-effect="non-scaling-stroke"/><path stroke="#444f64" d="M179.2 85.32q1.54 1.92 3.86 2.76.51.19.72.69c.72 1.69-2.95 3.35-3.78 4.94" vector-effect="non-scaling-stroke"/><path stroke="#273a5f" stroke-opacity=".569" d="M180 93.71q-1.96-.09-2.69.35-13.33 8.06-26.77 15.94" vector-effect="non-scaling-stroke"/><path stroke="#1c7abf" d="M132.74 58.46q.96 4.08-.52 7.76c-2.25 5.58-4.85 10.49-8.5 15.38-18.52 24.75-45.22 35.81-75.9 36.32q-.5.01-.72-.45-.87-1.77-.81-3.72" vector-effect="non-scaling-stroke"/><path stroke="#1f72b4" d="m46.29 113.75-.25-6" vector-effect="non-scaling-stroke"/><path stroke="#2178b6" stroke-opacity=".541" d="M46.04 107.75v-5.25" vector-effect="non-scaling-stroke"/><path stroke="#294876" d="M167.79 79.5q-3.19 8.13-7.6 15.67c-2.06 3.54-5.62 6.58-7.86 10.55-.98 1.76-1.65 2.31-3.16 3.56q-.53.44.17.44.7 0 1.2.28" vector-effect="non-scaling-stroke"/><path stroke="#214571" stroke-opacity=".569" d="m150.54 110-85.3 51.24" vector-effect="non-scaling-stroke"/><path stroke="#294876" d="M65.24 161.24q-8-.28-16.06-.04-1.83.06-2.47.92-.08.11-.09-.02l-.33-12.35" vector-effect="non-scaling-stroke"/><path stroke="#234977" stroke-opacity=".541" d="M46.29 149.75v-11" vector-effect="non-scaling-stroke"/><path stroke="#176baf" d="m140.75 63.04-.47.81q-.28.49.15.85c1.7 1.44-.16 4.69-1.04 6.49-14.81 30.01-42.56 49.85-75.9 53.86-4.51.54-10.72.46-16.13 1.2q-.61.09-.61-.53v-1.57q0-.49-.16-.02l-.11.32q-.21.64-.21-.04l.02-10.66" vector-effect="non-scaling-stroke"/><path stroke="#293d64" stroke-opacity=".541" d="m46.29 149.75-.06 22.34q-.01.56.48.28l4.64-2.7" vector-effect="non-scaling-stroke"/><path stroke="#273a5f" stroke-opacity=".569" d="m51.35 169.67 13.89-8.43" vector-effect="non-scaling-stroke"/><path stroke="#484747" d="M252.5 155.29q-4.77.19-9.53.55c-3.32.25-5.42-1.38-9.01-.34" vector-effect="non-scaling-stroke"/><path stroke="#565656" stroke-opacity=".541" d="M188.25 93.79H186" vector-effect="non-scaling-stroke"/><path stroke="#515151" stroke-opacity=".569" d="m186 93.79-6-.08" vector-effect="non-scaling-stroke"/><path stroke="#8e522f" d="M244.5 170.46q-1.35 1.23-2.25-.1" vector-effect="non-scaling-stroke"/><path stroke="#e86a27" d="m245.18 170.59 9.1.61q.53.03.18.44l-1.25 1.42q-.26.3-.3.7c-3.53 39.41-38.78 68.69-77.91 66.44q-1.19-.06-3.49 1.21-.53.29-.63-.31l-.59-3.35" vector-effect="non-scaling-stroke"/><path stroke="#e87b30" d="m234.25 170.54 4.06 1.38a1.42 1.42 0 0 1 .94 1.58c-5.46 32.76-31.51 54.6-64.55 53.05-1.27-.06-2.38.55-3.27 1.34q-.36.32-.44-.16l-.7-4.48" vector-effect="non-scaling-stroke"/><path stroke="#e78a38" d="M170.29 219.25q.5.4.86 1.09.29.55.57 0 1.3-2.45 4.02-2.36c17.75.63 37.2-7.05 46.18-23 1.68-3 3.91-5.89 5.11-8.68q2.78-6.5 3.75-13.58a1.34 1.33 5.9 0 0-1.23-1.51l-11.05-.75" vector-effect="non-scaling-stroke"/><path stroke="#e35d20" d="M254.75 170.46c1.11.01 9.15-.12 9.47.32q.17.24.46.31l2.73.71q.6.15.55.77c-3.2 43.46-36.42 76.6-79.2 82.25-3.84.5-13.19-.6-15.89 1.08a1.23 1.23 0 0 1-1.88-.93l-.7-7.22" vector-effect="non-scaling-stroke"/><path stroke="#e7913b" d="M218.5 170.29v.17" vector-effect="non-scaling-stroke"/><path stroke="#e6973e" d="M218.5 170.46q-.19-.01-.37.03-.43.11.01.16c4.3.44-.1 9.31-1.97 13.27-6.02 12.7-17.12 20.52-31.2 23.15-3.63.67-7.93.3-11.91.6q-.4.03-.7.31l-.78.73q-.65.61-.79-.28l-.5-3.18" vector-effect="non-scaling-stroke"/><path stroke="#d64f18" d="m266.5 170.29 16.2.41q.43.01.57.41.05.15.24.14 1.49-.08-.02.51-.34.13-.06.33.39.29.26.76c-1.97 6.75-3.14 14.93-4.65 20.4q-7.85 28.5-29.76 48.79-23.06 21.35-56.04 26.39-11.66 1.78-18.42 1.34-1.01-.07-2.27 1.13-.4.38-.81 0-1.22-1.15-1.45-3.15" vector-effect="non-scaling-stroke"/><path stroke="#e6a445" d="M210.75 170.29q1.48.54.73 2.45-2.99 7.57-4.33 9.63-10.93 16.93-31.31 16.25-.51-.02-.93.29-.97.74-1.93.1-.38-.25-.67.1-.47.57-.94.45-.6-.15-.59-.77.01-1.35-.49-2.54" vector-effect="non-scaling-stroke"/><path stroke="#c0390b" d="M308 170.29q.13.16.32.26.16.08.03.21-.17.18-.02.48.13.24.14.51.31 4.76-.54 9.45-.15.81-.18-.01-.04-1.37-.53-2.69-.29-.79-.35.04c-.51 7.16-2.03 10.8-3.61 17.69-6.35 27.69-22.34 50.94-44.14 69.35-3.82 3.23-8.46 4-11.98 7.09-1.64 1.44-3.69 1.98-5.3 3.38-5.76 5.02-12.02 6.87-18.59 9.45-2.54.99-6.2 2.87-9.77 3.69-11.49 2.62-22.95 4.29-34.74 4.79q-3.48.14-7 .87-.65.14-.73-.52l-.72-5.58" vector-effect="non-scaling-stroke"/><path stroke="#e6b24c" d="m195.75 170.29 7.7.49q.36.02.04.19-.66.34-.78 1.16-.07.51-.57.37-1.04-.3-1.15.53-.08.56-.46.99-2.07 2.29-3.94 4.75c-6.75 8.89-12.1 8.76-22.44 9.67q-.56.05-.92.48-.77.9-2.07.53-.59-.17-.42-.76.25-.88-.45-.94" vector-effect="non-scaling-stroke"/><path stroke="#aa2907" d="m309.46 247.25-.32-1.73q-.05-.23-.07.01l-.26 3.02q-.06.63-.68.74-2.84.51-4.19 2.85c-5.21 9.03-13.22 16.48-20.41 23.89-3.61 3.72-6.69 5.48-10.09 8.39-10.68 9.17-23.25 16.3-36.28 21.54-1.36.55-1.74 1.29-2.65 2.35q-.32.37-.81.43l-4.45.55" vector-effect="non-scaling-stroke"/><path stroke="#9e2703" stroke-opacity=".569" d="m229.25 309.29-52.75.25" vector-effect="non-scaling-stroke"/><path stroke="#972611" d="M309.46 261.25c-.57 2.18-.01 5.09-.8 6.62q-.41.8-.41-.1v-1.02q0-1.03-.86-.46-2.89 1.89-6.1 6-3.85 4.93-16.93 16.65-.09.08-.1.2l-.02.26q-.01.09-.08.16c-7.15 6.25-15.45 12.56-24 16.73-2.7 1.31-3.84 2.8-7.34 2.6q3.47.03 6.93.32" vector-effect="non-scaling-stroke"/><path stroke="#8c210a" stroke-opacity=".569" d="m259.75 309.21-30.5.08" vector-effect="non-scaling-stroke"/><path stroke="#6e211f" stroke-opacity=".569" d="m296 309.71-15.5-.25" vector-effect="non-scaling-stroke"/><path stroke="#86261d" d="M309.46 281.25q-.12 2.81-1.27 5.38-.2.45-.68.57c-.98.24-1.87.42-2.63 1.16q-7.19 6.9-14.67 13.51c-1.63 1.45-4.71 2.94-6.28 5.47q-.23.38-.68.4-1.8.09-2.75 1.72" vector-effect="non-scaling-stroke"/><path stroke="#7e2114" stroke-opacity=".569" d="m280.5 309.46-20.75-.25" vector-effect="non-scaling-stroke"/></g><path fill="#73c8ec" d="m51.75 9.54 25.96 15.79q2.44 2.89 5.81 4.71.48.26.62.78c3.83 14.23-9.92 30.86-24.09 31.83q-4.2.28-8.4-.4-.44-.07-.88.06-1.93.6-3.51-.38-.3-.18-.25.17.04.28-.04.5-.29.78-.4-.04-.09-.65-.53-1.06l-.12-6.87.04-24.63.25-19.5-.13-3.41q-.03-.81.67-.41l5 2.86Z"/><path fill="#030404" fill-opacity=".078" d="M179 85.21c-2.14.3-8.86-4.5-11.21-5.71l-7.5-4.5-12.5-7.5-7.04-4.46-8.01-4.58-12.2-7.46-15-9-17.75-10.5-10.08-6.17L51.75 9.54q.3.07.55-.08.33-.19.06-.47-.59-.59-.32-1.6.18-.64.84-.64h.31q.52.01.84.4.64.79 1.67.64.46-.07.81.24l1.46 1.33q.26.24.62.21 1.08-.06 1.33.86.14.51.64.67 2.69.84 4.87 2.59.4.33.68.78.57.95 1.56.7.37-.1.34.29-.01.16-.01.32 0 .24.23.18l.82-.22q.56-.14.85.35.98 1.64 2.87 1.57.54-.02.8.45.86 1.52 2.65 1.39.65-.04.74.6.07.56.8.42.57-.1.99.3 3.04 2.84 5.29 3.35 2.27.52 2.93 2.13.17.42.61.55 1.67.49 2.46 1.59.67.93 1.47.61.37-.16.68.1 1.82 1.5 3.77 2.88 1.84 1.3 3.31 1.57.46.08.64.51.89 2.05 3.19 1.63.52-.09.75.39.85 1.82 2.84 1.63.31-.03.31.28v.43q0 .06.06.08 2 .65 3.4 2.14.31.33.75.46l1.84.57q.49.15.81.55 1.41 1.81 3.53 2.77.36.16.56.49.35.58 1.23.22.64-.27.83.4.78 2.81 3.36 1.77.4-.16.39.27-.01.18-.01.33.01.32.28.47l5.25 2.86q.45.25.76.65.98 1.3 2.68 1.3.53.01.81.46 1.02 1.71 2.96 1.62.38-.02.55.33.83 1.82 2.55 1.61.4-.05.41.36v.36q.01.3.27.44l3.98 2.06q.37.19.7.46 2.15 1.77 4.71 2.56.28.09.32.38.02.14.02.29 0 .23.22.28l3.04.74q.48.12.74.53.88 1.37 2.4 1.52.37.04.51.38.77 1.89 2.6 1.59.63-.11.49.52-.17.77.51.76.74 0 .52.7l-.35 1.12q-.43 1.36.61.38 2.02-1.91 3.55.63.24.4.71.38l.89-.05q.31-.01.31.29v.5q0 .25.25.25h.71q.44 0 .23.39l-.15.3q-.05.08.04.06l1.39-.28q.72-.14.75.59.04 1.11 1.38.93.49-.06.66.4.21.59 1.04.39.43-.11.61.29.65 1.39 1.99 1.67.58.12 1.07.45l2.59 1.73q.51.35.21.89-.32.58-1.44 1.17-1.05.56.11.31.43-.09.81.67ZM46.21 10.5 45.96 30q-.4-.09-.73.03-.53.18-.57.74c-.05.73.24 6.44-1.14 6.89q-.52.17-.52-.39V11.2q0-.59.54-.8 1.24-.47 2.67.1Z"/><path fill="#60b7e3" d="m77.71 25.33 10.08 6.17.3.88q.16.49.63.68 1.61.67 2.71 1.94c3.73 4.31-2.86 16.72-5.64 20.35Q71.4 74.19 47.47 69.82q-.54-.1-.62.44-.09.63-.21 1.2-.08.38-.06-.01.16-2.06-.54-3.95v-6q.44.41.53 1.06.11.82.4.04.08-.22.04-.5-.05-.35.25-.17 1.58.98 3.51.38.44-.13.88-.06 4.2.68 8.4.4c14.17-.97 27.92-17.6 24.09-31.83q-.14-.52-.62-.78-3.37-1.82-5.81-4.71Z"/><path fill="#4da6d9" d="M87.79 31.5 105.54 42c.44 1.96 2.03 2.12 2.85 3.41 2.78 4.41-5.49 17.73-8.5 21.73-5.46 7.25-12.95 12.85-21.09 16.64q-15.12 7.03-32.29 4.8.26-1.92-.51-3.37v-1.5l.04-16.21q.7 1.89.54 3.95-.02.39.06.01.12-.57.21-1.2.08-.54.62-.44 23.93 4.37 38.32-14.47c2.78-3.63 9.37-16.04 5.64-20.35q-1.1-1.27-2.71-1.94-.47-.19-.63-.68l-.3-.88Z"/><path fill="#2f8cca" d="m105.54 42 15 9q1.14 2.58 3.96 3.25.52.13.45.65c-.22 1.79.24 3.12-.41 4.83-5.31 13.8-16.09 26.75-28.38 34.81q-.44.29-.96.21-.43-.07-.45.27-.04.45-.42.69c-13.85 8.89-30.05 12.41-46.21 11.72q-1.55-.06-1.39-1.6.2-1.99-.69-3.33-.04-.12-.08-.25l.25-7.75.3-5.92q17.17 2.23 32.29-4.8c8.14-3.79 15.63-9.39 21.09-16.64 3.01-4 11.28-17.32 8.5-21.73-.82-1.29-2.41-1.45-2.85-3.41Z"/><path fill="#2381c4" d="m120.54 51 12.2 7.46q.96 4.08-.52 7.76c-2.25 5.58-4.85 10.49-8.5 15.38-18.52 24.75-45.22 35.81-75.9 36.32q-.5.01-.72-.45-.87-1.77-.81-3.72l-.25-6v-5.25q.89 1.34.69 3.33-.16 1.54 1.39 1.6c16.16.69 32.36-2.83 46.21-11.72q.38-.24.42-.69.02-.34.45-.27.52.08.96-.21c12.29-8.06 23.07-21.01 28.38-34.81.65-1.71.19-3.04.41-4.83q.07-.52-.45-.65-2.82-.67-3.96-3.25Z"/><path fill="#030404" fill-opacity=".078" d="m45.92 54.63.12 6.87v6L46 83.71l-.19.2q-.31.32-.31-.12v-1.54q0-1.34-.47-.22-.4.97-1.36.99-.69.02-.69-.68L43.01 52q0-.5.5-.5H44q.64 0 .57.63-.29 2.69 1.35 2.5Z"/><path fill="#1472ba" d="m132.74 58.46 8.01 4.58-.47.81q-.28.49.15.85c1.7 1.44-.16 4.69-1.04 6.49-14.81 30.01-42.56 49.85-75.9 53.86-4.51.54-10.72.46-16.13 1.2q-.61.09-.61-.53v-1.57q0-.49-.16-.02l-.11.32q-.21.64-.21-.04l.02-10.66q-.06 1.95.81 3.72.22.46.72.45c30.68-.51 57.38-11.57 75.9-36.32 3.65-4.89 6.25-9.8 8.5-15.38q1.48-3.68.52-7.76Z"/><path fill="#1a63a3" d="m140.75 63.04 7.04 4.46q.36 1.41 1.86 1.79 1.16.29.31.67-.79.36-.46.92.28.48.07 1c-9.83 24.03-29.6 43.09-52.81 54.21q-.45.21-.94.15-.74-.1-1.12.39-.3.38-.75.56-19.81 8.03-41.22 8.3c-1.75.03-3.39.35-5.06.68q-.17.03-.17-.14v-.34q.01-.33-.22-.1l-.24.25q-.18.18-.22-.07-.14-.77-.78-1.27v-26.75l.25 6-.02 10.66q0 .68.21.04l.11-.32q.16-.47.16.02v1.57q0 .62.61.53c5.41-.74 11.62-.66 16.13-1.2 33.34-4.01 61.09-23.85 75.9-53.86.88-1.8 2.74-5.05 1.04-6.49q-.43-.36-.15-.85l.47-.81Z"/><path fill="#205a93" d="m147.79 67.5 12.5 7.5q-2.01.6-1.87 2.73.1 1.6-.36.21-.03-.1-.04-.2-.07-.45-.22-.08c-8.33 20.26-24.94 37.84-43.24 49.24q-.61.38-4.38 2.98c-3.07 2.11-7.46 3.74-9.7 4.84-16.73 8.2-32.28 10.09-51.75 10.9-.37.02-1.41.65-1.79.86q-.17.09-.18-.1l-.47-7.63-.25-4.25q.64.5.78 1.27.04.25.22.07l.24-.25q.23-.23.22.1v.34q0 .17.17.14c1.67-.33 3.31-.65 5.06-.68q21.41-.27 41.22-8.3.45-.18.75-.56.38-.49 1.12-.39.49.06.94-.15c23.21-11.12 42.98-30.18 52.81-54.21q.21-.52-.07-1-.33-.56.46-.92.85-.38-.31-.67-1.5-.38-1.86-1.79Z"/><path fill="#254e80" d="m160.29 75 7.5 4.5q-3.19 8.13-7.6 15.67c-2.06 3.54-5.62 6.58-7.86 10.55-.98 1.76-1.65 2.31-3.16 3.56q-.53.44.17.44.7 0 1.2.28l-85.3 51.24q-8-.28-16.06-.04-1.83.06-2.47.92-.08.11-.09-.02l-.33-12.35v-11l.47 7.63q.01.19.18.1c.38-.21 1.42-.84 1.79-.86 19.47-.81 35.02-2.7 51.75-10.9 2.24-1.1 6.63-2.73 9.7-4.84q3.77-2.6 4.38-2.98c18.3-11.4 34.91-28.98 43.24-49.24q.15-.37.22.08.01.1.04.2.46 1.39.36-.21-.14-2.13 1.87-2.73Z"/><path fill="#2c426c" d="M167.79 79.5c2.35 1.21 9.07 6.01 11.21 5.71q.13.04.2.11 1.54 1.92 3.86 2.76.51.19.72.69c.72 1.69-2.95 3.35-3.78 4.94q-1.96-.09-2.69.35-13.33 8.06-26.77 15.94-.5-.28-1.2-.28t-.17-.44c1.51-1.25 2.18-1.8 3.16-3.56 2.24-3.97 5.8-7.01 7.86-10.55q4.41-7.54 7.6-15.67Z"/><path fill="#5c5c5c" d="M46 85.21q.77 1.45.51 3.37l-.3 5.92-.26-.38q-.26-.37-.7-.37H6.87q-.62 0-.62-.63v-7.07a.81.81 0 0 1 .81-.81L46 85.21ZM179.2 85.32l68.31-.05a.74.74 0 0 1 .74.74v57.53q0 .53.53.53l9.47-.1a.51.51 0 0 1 .44.77l-6.19 10.55q-4.77.19-9.53.55c-3.32.25-5.42-1.38-9.01-.34l-6.49-11.03a.33.32 75.2 0 1 .28-.49l11.5.07q.5.01.5-.49V94.27q0-.5-.49-.5l-51.01.02H186l-6-.08c.83-1.59 4.5-3.25 3.78-4.94q-.21-.5-.72-.69-2.32-.84-3.86-2.76Z"/><path fill="#010001" fill-opacity=".137" d="m180 93.71 6 .08-4.11.15q-.54.02-.79.5l-.6 1.16q-.28.55-.88.4-.88-.23-1.17.59-.17.46-.63.61-3.3 1.02-5.63 3.48-.36.39-.89.5c-2.15.45-3.78 2.23-5.31 3.02q-2 1.03-3.87 2.28c-6.06 4.05-12.85 7.42-19.02 11.2q-.5.31-1 .03-.65-.35-.66.26-.02.54-.39.91c-2.75 2.8-6.67 4.21-9.25 5.78q-3.23 1.97-6.57 3.72c-3.66 1.9-6.98 4.8-10.97 6.89q-3.53 1.84-7.65 4.94-.41.31-.91.36c-1.66.19-6.84 4.12-8.19 5.03-1.35.92-2.96 1.09-4.29 2.12-3.24 2.52-7.02 4.17-10.39 6.58-1.83 1.31-4 1.32-5.67 3.34q-.31.37-.79.48-1 .23-2.46 1.28-7.95 5.65-20.95 12.35-.43.22-.89.08-.5-.15-1.04.17-2.65 1.57-.38-.35 1.27-1.08.7-1.98l13.89-8.43 85.3-51.24q13.44-7.88 26.77-15.94.73-.44 2.69-.35Z"/><path fill="#030404" fill-opacity=".078" d="M186 93.79h2.25q-.72.72-1.76.39-.48-.16-.65.32-.07.19-.13.37-.04.16.12.21c3.21.97-2.88 4.39-3.24 4.68q-2.76 2.22-5.99 3.74-.48.23-.84.62-2.22 2.45-5.47 3.28-.49.13-.77.54-1.3 1.87-3.71 1.81-.5-.01-.79.39-1.03 1.39-2.71 1.64-.59.09-.78.67-.25.75-1.11.53-.41-.1-.77.1l-2.94 1.67q-.4.22-.85.22-1.02-.01-1.27 1.05-.12.5-.58.72-6.19 3.05-11.83 6.91c-1.7 1.16-4.07 1.89-6.16 3.86-1.63 1.53-4.29 2.31-6.14 3.61q-4.29 3.01-8.87 5.57-.44.24-.93.3-1.05.12-1.45 1.11-.18.46-.63.64-4.05 1.63-6.43 3.57-.91.75-1.74.75-.39 0-.61.33-1.34 2.02-3.73 2.47-.51.09-.94.36l-7.22 4.49q-.43.26-.93.25-1.37-.02-1.83.98-.22.48-.66.78l-2.9 2.03q-.36.26-.8.22-.92-.07-1.33.88-.22.5-.7.77c-3.29 1.84-6.11 3.45-9.92 5.35-2.48 1.23-6.76 5.12-8.65 5.11q-.41 0-.65.33-.33.47-.96.33-.52-.11-.6.42-.19 1.38-1.52 1.61-.42.07-.79.3l-8.16 5.2q-.36.23-.77.21c-1.41-.09-1.99 1.02-3.01 1.37q-3.51 1.21-6.95-.41-.45-.21-.45-.7v-.43q0-.24-.23-.3c-1.68-.41-2.52-1.53-2.52-3.33v-70.74q0-.62.61-.49c1.29.3.92 2.45 2.35 1.8q.04.13.08.25v32l.25 4.25v11l-.06 22.34q-.01.56.48.28l4.64-2.7q.57.9-.7 1.98-2.27 1.92.38.35.54-.32 1.04-.17.46.14.89-.08 13-6.7 20.95-12.35 1.46-1.05 2.46-1.28.48-.11.79-.48c1.67-2.02 3.84-2.03 5.67-3.34 3.37-2.41 7.15-4.06 10.39-6.58 1.33-1.03 2.94-1.2 4.29-2.12 1.35-.91 6.53-4.84 8.19-5.03q.5-.05.91-.36 4.12-3.1 7.65-4.94c3.99-2.09 7.31-4.99 10.97-6.89q3.34-1.75 6.57-3.72c2.58-1.57 6.5-2.98 9.25-5.78q.37-.37.39-.91.01-.61.66-.26.5.28 1-.03c6.17-3.78 12.96-7.15 19.02-11.2q1.87-1.25 3.87-2.28c1.53-.79 3.16-2.57 5.31-3.02q.53-.11.89-.5 2.33-2.46 5.63-3.48.46-.15.63-.61.29-.82 1.17-.59.6.15.88-.4l.6-1.16q.25-.48.79-.5l4.11-.15Z"/><path fill="#2c426c" d="m46.29 149.75.33 12.35q.01.13.09.02.64-.86 2.47-.92 8.06-.24 16.06.04l-13.89 8.43-4.64 2.7q-.49.28-.48-.28l.06-22.34Z"/><path fill="#333232" d="m252.5 155.29-8.28 14.52q-.15.26.07.46l.21.19q-1.35 1.23-2.25-.1l-8.29-14.86c3.59-1.04 5.69.59 9.01.34q4.76-.36 9.53-.55Z"/><path fill="#e5ba50" d="m195.75 170.29 7.7.49q.36.02.04.19-.66.34-.78 1.16-.07.51-.57.37-1.04-.3-1.15.53-.08.56-.46.99-2.07 2.29-3.94 4.75c-6.75 8.89-12.1 8.76-22.44 9.67q-.56.05-.92.48-.77.9-2.07.53-.59-.17-.42-.76.25-.88-.45-.94l-.03-17a.49.49 0 0 1 .49-.49l25 .03Z"/><path fill="#e6aa48" d="M195.75 170.29h15q1.48.54.73 2.45-2.99 7.57-4.33 9.63-10.93 16.93-31.31 16.25-.51-.02-.93.29-.97.74-1.93.1-.38-.25-.67.1-.47.57-.94.45-.6-.15-.59-.77.01-1.35-.49-2.54v-8.5q.7.06.45.94-.17.59.42.76 1.3.37 2.07-.53.36-.43.92-.48c10.34-.91 15.69-.78 22.44-9.67q1.87-2.46 3.94-4.75.38-.43.46-.99.11-.83 1.15-.53.5.14.57-.37.12-.82.78-1.16.32-.17-.04-.19l-7.7-.49Z"/><path fill="#e69d41" d="M210.75 170.29h7.75v.17q-.19-.01-.37.03-.43.11.01.16c4.3.44-.1 9.31-1.97 13.27-6.02 12.7-17.12 20.52-31.2 23.15-3.63.67-7.93.3-11.91.6q-.4.03-.7.31l-.78.73q-.65.61-.79-.28l-.5-3.18v-9q.5 1.19.49 2.54-.01.62.59.77.47.12.94-.45.29-.35.67-.1.96.64 1.93-.1.42-.31.93-.29 20.38.68 31.31-16.25 1.34-2.06 4.33-9.63.75-1.91-.73-2.45Z"/><path fill="#e78434" d="m218.5 170.29 15.75.25 4.06 1.38a1.42 1.42 0 0 1 .94 1.58c-5.46 32.76-31.51 54.6-64.55 53.05-1.27-.06-2.38.55-3.27 1.34q-.36.32-.44-.16l-.7-4.48v-4q.5.4.86 1.09.29.55.57 0 1.3-2.45 4.02-2.36c17.75.63 37.2-7.05 46.18-23 1.68-3 3.91-5.89 5.11-8.68q2.78-6.5 3.75-13.58a1.34 1.33 5.9 0 0-1.23-1.51l-11.05-.75v-.17Z"/><path fill="#e8722b" d="M242.25 170.36q.9 1.33 2.25.1l.68.13 9.1.61q.53.03.18.44l-1.25 1.42q-.26.3-.3.7c-3.53 39.41-38.78 68.69-77.91 66.44q-1.19-.06-3.49 1.21-.53.29-.63-.31l-.59-3.35v-14.5l.7 4.48q.08.48.44.16c.89-.79 2-1.4 3.27-1.34 33.04 1.55 59.09-20.29 64.55-53.05a1.42 1.42 0 0 0-.94-1.58l-4.06-1.38 8-.18Z"/><path fill="#e76122" d="M254.75 170.46c1.11.01 9.15-.12 9.47.32q.17.24.46.31l2.73.71q.6.15.55.77c-3.2 43.46-36.42 76.6-79.2 82.25-3.84.5-13.19-.6-15.89 1.08a1.23 1.23 0 0 1-1.88-.93l-.7-7.22v-10l.59 3.35q.1.6.63.31 2.3-1.27 3.49-1.21c39.13 2.25 74.38-27.03 77.91-66.44q.04-.4.3-.7l1.25-1.42q.35-.41-.18-.44l-9.1-.61 9.57-.13Z"/><path fill="#df581e" d="m266.5 170.29 16.2.41q.43.01.57.41.05.15.24.14 1.49-.08-.02.51-.34.13-.06.33.39.29.26.76c-1.97 6.75-3.14 14.93-4.65 20.4q-7.85 28.5-29.76 48.79-23.06 21.35-56.04 26.39-11.66 1.78-18.42 1.34-1.01-.07-2.27 1.13-.4.38-.81 0-1.22-1.15-1.45-3.15v-20l.7 7.22a1.23 1.23 0 0 0 1.88.93c2.7-1.68 12.05-.58 15.89-1.08 42.78-5.65 76-38.79 79.2-82.25q.05-.62-.55-.77l-2.73-.71q-.29-.07-.46-.31c-.32-.44-8.36-.31-9.47-.32l11.75-.17Z"/><path fill="#cc4512" d="M266.5 170.29H308q.13.16.32.26.16.08.03.21-.17.18-.02.48.13.24.14.51.31 4.76-.54 9.45-.15.81-.18-.01-.04-1.37-.53-2.69-.29-.79-.35.04c-.51 7.16-2.03 10.8-3.61 17.69-6.35 27.69-22.34 50.94-44.14 69.35-3.82 3.23-8.46 4-11.98 7.09-1.64 1.44-3.69 1.98-5.3 3.38-5.76 5.02-12.02 6.87-18.59 9.45-2.54.99-6.2 2.87-9.77 3.69-11.49 2.62-22.95 4.29-34.74 4.79q-3.48.14-7 .87-.65.14-.73-.52l-.72-5.58v-21q.23 2 1.45 3.15.41.38.81 0 1.26-1.2 2.27-1.13 6.76.44 18.42-1.34 32.98-5.04 56.04-26.39 21.91-20.29 29.76-48.79c1.51-5.47 2.68-13.65 4.65-20.4q.13-.47-.26-.76-.28-.2.06-.33 1.51-.59.02-.51-.19.01-.24-.14-.14-.4-.57-.41l-16.2-.41Z"/><path fill="#b42c03" d="M308 170.29q.6-.12.83 0 .66.32.66.77l-.03 76.19-.32-1.73q-.05-.23-.07.01l-.26 3.02q-.06.63-.68.74-2.84.51-4.19 2.85c-5.21 9.03-13.22 16.48-20.41 23.89-3.61 3.72-6.69 5.48-10.09 8.39-10.68 9.17-23.25 16.3-36.28 21.54-1.36.55-1.74 1.29-2.65 2.35q-.32.37-.81.43l-4.45.55-52.75.25-5.72-.28q-.56-.03-.56-.59l.07-19.92.72 5.58q.08.66.73.52 3.52-.73 7-.87c11.79-.5 23.25-2.17 34.74-4.79 3.57-.82 7.23-2.7 9.77-3.69 6.57-2.58 12.83-4.43 18.59-9.45 1.61-1.4 3.66-1.94 5.3-3.38 3.52-3.09 8.16-3.86 11.98-7.09 21.8-18.41 37.79-41.66 44.14-69.35 1.58-6.89 3.1-10.53 3.61-17.69q.06-.83.35-.04.49 1.32.53 2.69.03.82.18.01.85-4.69.54-9.45-.01-.27-.14-.51-.15-.3.02-.48.13-.13-.03-.21-.19-.1-.32-.26Z"/><path fill="#e6903b" d="m218.5 170.46 11.05.75a1.34 1.33 5.9 0 1 1.23 1.51q-.97 7.08-3.75 13.58c-1.2 2.79-3.43 5.68-5.11 8.68-8.98 15.95-28.43 23.63-46.18 23q-2.72-.09-4.02 2.36-.28.55-.57 0-.36-.69-.86-1.09v-14l.5 3.18q.14.89.79.28l.78-.73q.3-.28.7-.31c3.98-.3 8.28.07 11.91-.6 14.08-2.63 25.18-10.45 31.2-23.15 1.87-3.96 6.27-12.83 1.97-13.27q-.44-.05-.01-.16.18-.04.37-.03Z"/><path fill="#9f260b" d="M309.46 247.25v14c-.57 2.18-.01 5.09-.8 6.62q-.41.8-.41-.1v-1.02q0-1.03-.86-.46-2.89 1.89-6.1 6-3.85 4.93-16.93 16.65-.09.08-.1.2l-.02.26q-.01.09-.08.16c-7.15 6.25-15.45 12.56-24 16.73-2.7 1.31-3.84 2.8-7.34 2.6q3.47.03 6.93.32l-30.5.08 4.45-.55q.49-.06.81-.43c.91-1.06 1.29-1.8 2.65-2.35 13.03-5.24 25.6-12.37 36.28-21.54 3.4-2.91 6.48-4.67 10.09-8.39 7.19-7.41 15.2-14.86 20.41-23.89q1.35-2.34 4.19-2.85.62-.11.68-.74l.26-3.02q.02-.24.07-.01l.32 1.73Z"/><path fill="#8f2617" d="M309.46 261.25v20q-.12 2.81-1.27 5.38-.2.45-.68.57c-.98.24-1.87.42-2.63 1.16q-7.19 6.9-14.67 13.51c-1.63 1.45-4.71 2.94-6.28 5.47q-.23.38-.68.4-1.8.09-2.75 1.72l-20.75-.25q-3.46-.29-6.93-.32c3.5.2 4.64-1.29 7.34-2.6 8.55-4.17 16.85-10.48 24-16.73q.07-.07.08-.16l.02-.26q.01-.12.1-.2 13.08-11.72 16.93-16.65 3.21-4.11 6.1-6 .86-.57.86.46v1.02q0 .9.41.1c.79-1.53.23-4.44.8-6.62Z"/><path fill="#7d2623" d="m309.46 281.25.04 28.04q0 .41-.41.41l-13.09.01-15.5-.25q.95-1.63 2.75-1.72.45-.02.68-.4c1.57-2.53 4.65-4.02 6.28-5.47q7.48-6.61 14.67-13.51c.76-.74 1.65-.92 2.63-1.16q.48-.12.68-.57 1.15-2.57 1.27-5.38Z"/><path fill="#010001" fill-opacity=".137" d="m229.25 309.29 30.5-.08 20.75.25 15.5.25-3.14.05q-.52 0-.66.51-.61 2.21-2.95 2.21c-37.37.03-75.24 1.11-112.55-.51q-.47-.02-.67-.46c-.6-1.39 1.55-1.28 2.25-1.53q.34-.13-.02-.18l-1.76-.26 52.75-.25Z"/></svg>